<?xml version="1.0" encoding="UTF-8"?>
<svg xmlns="http://www.w3.org/2000/svg" width="183mm" height="76mm" viewBox="0 0 1965 760" role="img" aria-labelledby="title desc" data-style="nature-redraw-v1">
<title id="title">Feature-fusion chunk and Top-K strategy</title>
<desc id="desc">Nature-style vector redraw of the MoBA feature fusion, chunk strategy, and Top-K selection workflow.</desc>
<defs>
  <marker id="arrow" viewBox="0 0 10 10" refX="8" refY="5" markerWidth="7" markerHeight="7" orient="auto-start-reverse"><path d="M 0 0 L 10 5 L 0 10 z" fill="#1f2933"/></marker>
  <style><![CDATA[
    text{font-family:Arial, Helvetica, sans-serif; dominant-baseline:middle;}
    .small{font-size:18px; fill:#6b7280;}
    .label{font-size:22px; fill:#1f2933;}
    .panel{font-size:34px; font-weight:700;}
    .thin{stroke:#6b7280; stroke-width:1.5;}
  ]]></style>
<linearGradient id="grad1" x1="0" x2="1"><stop offset="0" stop-color="#f7f7f7"/><stop offset="1" stop-color="#bdbdbd"/></linearGradient></defs>
<rect width="100%" height="100%" fill="#ffffff"/>
<line x1="915" y1="28" x2="915" y2="732" stroke="#6b7280" stroke-width="1.8" />
<text x="34" y="42" font-size="34" font-weight="700" text-anchor="start" fill="#1f2933">a</text>
<text x="950" y="42" font-size="34" font-weight="700" text-anchor="start" fill="#1f2933">b</text>
<text x="250" y="56" font-size="28" font-weight="700" text-anchor="middle" fill="#1f2933">Chunk-size adaptation</text>
<text x="1380" y="56" font-size="28" font-weight="700" text-anchor="middle" fill="#1f2933">Top-K node selection</text>
<text x="260" y="108" font-size="22" font-weight="600" text-anchor="middle" fill="#1f2933">Node features</text><circle cx="175" cy="170" r="26" fill="#DCEBFA" stroke="#4C78A8" stroke-width="2"/><circle cx="235" cy="170" r="26" fill="#DCEBFA" stroke="#4C78A8" stroke-width="2"/><circle cx="295" cy="170" r="26" fill="#DCEBFA" stroke="#4C78A8" stroke-width="2"/><circle cx="145" cy="285" r="22" fill="#E7D8EF" stroke="#8E6CBA" stroke-width="2"/><circle cx="205" cy="285" r="22" fill="#E7D8EF" stroke="#8E6CBA" stroke-width="2"/><circle cx="265" cy="285" r="22" fill="#E7D8EF" stroke="#8E6CBA" stroke-width="2"/><circle cx="325" cy="285" r="22" fill="#E7D8EF" stroke="#8E6CBA" stroke-width="2"/><line x1="175" y1="196" x2="145" y2="262" stroke="#1f2933" stroke-width="1.4" /><line x1="175" y1="196" x2="205" y2="262" stroke="#1f2933" stroke-width="1.4" /><line x1="175" y1="196" x2="265" y2="262" stroke="#1f2933" stroke-width="1.4" /><line x1="175" y1="196" x2="325" y2="262" stroke="#1f2933" stroke-width="1.4" /><line x1="235" y1="196" x2="145" y2="262" stroke="#1f2933" stroke-width="1.4" /><line x1="235" y1="196" x2="205" y2="262" stroke="#1f2933" stroke-width="1.4" /><line x1="235" y1="196" x2="265" y2="262" stroke="#1f2933" stroke-width="1.4" /><line x1="235" y1="196" x2="325" y2="262" stroke="#1f2933" stroke-width="1.4" /><line x1="295" y1="196" x2="145" y2="262" stroke="#1f2933" stroke-width="1.4" /><line x1="295" y1="196" x2="205" y2="262" stroke="#1f2933" stroke-width="1.4" /><line x1="295" y1="196" x2="265" y2="262" stroke="#1f2933" stroke-width="1.4" /><line x1="295" y1="196" x2="325" y2="262" stroke="#1f2933" stroke-width="1.4" /><rect x="92" y="250" width="290" height="70" rx="0" fill="#DDEFD9" stroke="#54A24B" stroke-width="2"/><rect x="80" y="238" width="290" height="70" rx="0" fill="#EBF6E7" stroke="#54A24B" stroke-width="2"/><text x="235" y="350" font-size="18" font-weight="400" text-anchor="middle" fill="#1f2933">node embedding</text><line x1="235" y1="322" x2="235" y2="410" stroke="#1f2933" stroke-width="2" marker-end="url(#arrow)"/><text x="650" y="108" font-size="22" font-weight="600" text-anchor="middle" fill="#1f2933">Edge features</text><rect x="590" y="134" width="170" height="46" rx="0" fill="#FFF5D8" stroke="#F58518" stroke-width="1.6"/><rect x="580" y="142" width="170" height="46" rx="0" fill="#FFF5D8" stroke="#F58518" stroke-width="1.6"/><rect x="570" y="150" width="170" height="46" rx="0" fill="#FFF5D8" stroke="#F58518" stroke-width="1.6"/><line x1="650" y1="220" x2="650" y2="305" stroke="#1f2933" stroke-width="2" marker-end="url(#arrow)"/><rect x="585" y="286" width="220" height="55" rx="0" fill="#FEEBD2" stroke="#F58518" stroke-width="1.6"/><rect x="575" y="294" width="220" height="55" rx="0" fill="#FEEBD2" stroke="#F58518" stroke-width="1.6"/><rect x="565" y="302" width="220" height="55" rx="0" fill="#FEEBD2" stroke="#F58518" stroke-width="1.6"/><rect x="555" y="310" width="220" height="55" rx="0" fill="#FEEBD2" stroke="#F58518" stroke-width="1.6"/><text x="650" y="396" font-size="18" font-weight="400" text-anchor="middle" fill="#1f2933">edge embedding</text><line x1="650" y1="365" x2="650" y2="410" stroke="#1f2933" stroke-width="2" marker-end="url(#arrow)"/><line x1="235" y1="410" x2="390" y2="455" stroke="#1f2933" stroke-width="2" marker-end="url(#arrow)"/><line x1="650" y1="410" x2="500" y2="455" stroke="#1f2933" stroke-width="2" marker-end="url(#arrow)"/><rect x="380" y="430" width="175" height="48" rx="4" fill="#E8F4F4" stroke="#72B7B2" stroke-width="2"/><rect x="390" y="405" width="235" height="58" rx="4" fill="#F4E6D4" stroke="#6b5b4b" stroke-width="2"/><text x="505" y="435" font-size="21" font-weight="600" text-anchor="middle" fill="#1f2933">feature fusion</text><rect x="335" y="500" width="340" height="95" rx="0" fill="#F3F6F4" stroke="#94A3A0" stroke-width="2"/><text x="505" y="550" font-size="22" font-weight="600" text-anchor="middle" fill="#1f2933">combined representation</text><line x1="505" y1="478" x2="505" y2="500" stroke="#1f2933" stroke-width="2" marker-end="url(#arrow)"/><line x1="505" y1="595" x2="505" y2="650" stroke="#1f2933" stroke-width="2" marker-end="url(#arrow)"/><rect x="415" y="650" width="180" height="42" rx="0" fill="#D8E2EF" stroke="#4C78A8" stroke-width="2"/><text x="505" y="672" font-size="20" font-weight="600" text-anchor="middle" fill="#1f2933">importance score</text><line x1="415" y1="672" x2="310" y2="672" stroke="#1f2933" stroke-width="2" marker-end="url(#arrow)"/><line x1="595" y1="672" x2="715" y2="672" stroke="#1f2933" stroke-width="2" marker-end="url(#arrow)"/><rect x="245" y="646" width="44" height="52" rx="0" fill="url(#grad1)" stroke="#6b7280" stroke-width="1"/><rect x="740" y="626" width="30" height="92" rx="0" fill="#F2F2F2" stroke="#6b7280" stroke-width="1"/><text x="190" y="672" font-size="19" font-weight="400" text-anchor="end" fill="#1f2933">chunk sizes</text><text x="790" y="672" font-size="19" font-weight="400" text-anchor="start" fill="#1f2933">max sequence length</text><text x="1125" y="105" font-size="21" font-weight="600" text-anchor="middle" fill="#1f2933">Node features</text><rect x="1040" y="135" width="32" height="28" rx="0" fill="#F9E4C8" stroke="#6b7280" stroke-width="1"/><rect x="1072" y="135" width="32" height="28" rx="0" fill="#EBC2C0" stroke="#6b7280" stroke-width="1"/><rect x="1104" y="135" width="32" height="28" rx="0" fill="#DCEBCE" stroke="#6b7280" stroke-width="1"/><rect x="1136" y="135" width="32" height="28" rx="0" fill="#CFE0F3" stroke="#6b7280" stroke-width="1"/><rect x="1168" y="135" width="32" height="28" rx="0" fill="#DED2E8" stroke="#6b7280" stroke-width="1"/><circle cx="1048" cy="210" r="13" fill="#FFE9A8" stroke="#F58518" stroke-width="1.5"/><circle cx="1086" cy="210" r="13" fill="#FFE9A8" stroke="#F58518" stroke-width="1.5"/><circle cx="1124" cy="210" r="13" fill="#FFE9A8" stroke="#F58518" stroke-width="1.5"/><circle cx="1162" cy="210" r="13" fill="#FFE9A8" stroke="#F58518" stroke-width="1.5"/><circle cx="1200" cy="210" r="13" fill="#FFE9A8" stroke="#F58518" stroke-width="1.5"/><circle cx="1238" cy="210" r="13" fill="#FFE9A8" stroke="#F58518" stroke-width="1.5"/><circle cx="1048" cy="315" r="12" fill="#DCCCEA" stroke="#8E6CBA" stroke-width="1.5"/><circle cx="1086" cy="315" r="12" fill="#DCCCEA" stroke="#8E6CBA" stroke-width="1.5"/><circle cx="1124" cy="315" r="12" fill="#DCCCEA" stroke="#8E6CBA" stroke-width="1.5"/><circle cx="1162" cy="315" r="12" fill="#DCCCEA" stroke="#8E6CBA" stroke-width="1.5"/><circle cx="1200" cy="315" r="12" fill="#DCCCEA" stroke="#8E6CBA" stroke-width="1.5"/><circle cx="1238" cy="315" r="12" fill="#DCCCEA" stroke="#8E6CBA" stroke-width="1.5"/><line x1="1048" y1="223" x2="1048" y2="302" stroke="#1f2933" stroke-width="1" /><line x1="1048" y1="223" x2="1086" y2="302" stroke="#1f2933" stroke-width="1" /><line x1="1048" y1="223" x2="1124" y2="302" stroke="#1f2933" stroke-width="1" /><line x1="1048" y1="223" x2="1162" y2="302" stroke="#1f2933" stroke-width="1" /><line x1="1048" y1="223" x2="1200" y2="302" stroke="#1f2933" stroke-width="1" /><line x1="1048" y1="223" x2="1238" y2="302" stroke="#1f2933" stroke-width="1" /><line x1="1086" y1="223" x2="1048" y2="302" stroke="#1f2933" stroke-width="1" /><line x1="1086" y1="223" x2="1086" y2="302" stroke="#1f2933" stroke-width="1" /><line x1="1086" y1="223" x2="1124" y2="302" stroke="#1f2933" stroke-width="1" /><line x1="1086" y1="223" x2="1162" y2="302" stroke="#1f2933" stroke-width="1" /><line x1="1086" y1="223" x2="1200" y2="302" stroke="#1f2933" stroke-width="1" /><line x1="1086" y1="223" x2="1238" y2="302" stroke="#1f2933" stroke-width="1" /><line x1="1124" y1="223" x2="1048" y2="302" stroke="#1f2933" stroke-width="1" /><line x1="1124" y1="223" x2="1086" y2="302" stroke="#1f2933" stroke-width="1" /><line x1="1124" y1="223" x2="1124" y2="302" stroke="#1f2933" stroke-width="1" /><line x1="1124" y1="223" x2="1162" y2="302" stroke="#1f2933" stroke-width="1" /><line x1="1124" y1="223" x2="1200" y2="302" stroke="#1f2933" stroke-width="1" /><line x1="1124" y1="223" x2="1238" y2="302" stroke="#1f2933" stroke-width="1" /><line x1="1162" y1="223" x2="1048" y2="302" stroke="#1f2933" stroke-width="1" /><line x1="1162" y1="223" x2="1086" y2="302" stroke="#1f2933" stroke-width="1" /><line x1="1162" y1="223" x2="1124" y2="302" stroke="#1f2933" stroke-width="1" /><line x1="1162" y1="223" x2="1162" y2="302" stroke="#1f2933" stroke-width="1" /><line x1="1162" y1="223" x2="1200" y2="302" stroke="#1f2933" stroke-width="1" /><line x1="1162" y1="223" x2="1238" y2="302" stroke="#1f2933" stroke-width="1" /><line x1="1200" y1="223" x2="1048" y2="302" stroke="#1f2933" stroke-width="1" /><line x1="1200" y1="223" x2="1086" y2="302" stroke="#1f2933" stroke-width="1" /><line x1="1200" y1="223" x2="1124" y2="302" stroke="#1f2933" stroke-width="1" /><line x1="1200" y1="223" x2="1162" y2="302" stroke="#1f2933" stroke-width="1" /><line x1="1200" y1="223" x2="1200" y2="302" stroke="#1f2933" stroke-width="1" /><line x1="1200" y1="223" x2="1238" y2="302" stroke="#1f2933" stroke-width="1" /><line x1="1238" y1="223" x2="1048" y2="302" stroke="#1f2933" stroke-width="1" /><line x1="1238" y1="223" x2="1086" y2="302" stroke="#1f2933" stroke-width="1" /><line x1="1238" y1="223" x2="1124" y2="302" stroke="#1f2933" stroke-width="1" /><line x1="1238" y1="223" x2="1162" y2="302" stroke="#1f2933" stroke-width="1" /><line x1="1238" y1="223" x2="1200" y2="302" stroke="#1f2933" stroke-width="1" /><line x1="1238" y1="223" x2="1238" y2="302" stroke="#1f2933" stroke-width="1" /><text x="1300" y="260" font-size="20" font-weight="400" text-anchor="middle" fill="#1f2933">feature encoder</text><rect x="1020" y="386" width="250" height="46" rx="0" fill="#FCE2E2" stroke="#E45756" stroke-width="2"/><text x="1145" y="410" font-size="20" font-weight="600" text-anchor="middle" fill="#1f2933">linear transform</text><line x1="1145" y1="327" x2="1145" y2="386" stroke="#1f2933" stroke-width="2" marker-end="url(#arrow)"/><rect x="1090" y="495" width="42" height="54" rx="0" fill="#DDEBFF" stroke="#4C78A8" stroke-width="2"/><text x="1195" y="522" font-size="19" font-weight="400" text-anchor="start" fill="#1f2933">importance score</text><line x1="1145" y1="432" x2="1111" y2="495" stroke="#1f2933" stroke-width="2" marker-end="url(#arrow)"/><path d="M 1390 144 L 1424 160 L 1390 176 Z" fill="#CFE3F3" stroke="#4C78A8" stroke-width="2"/><path d="M 1445 144 L 1479 160 L 1445 176 Z" fill="#CFE3F3" stroke="#4C78A8" stroke-width="2"/><path d="M 1390 194 L 1424 210 L 1390 226 Z" fill="#CFE3F3" stroke="#4C78A8" stroke-width="2"/><path d="M 1445 194 L 1479 210 L 1445 226 Z" fill="#CFE3F3" stroke="#4C78A8" stroke-width="2"/><circle cx="1605" cy="160" r="17" fill="#F7C6C7" stroke="#E45756" stroke-width="2"/><circle cx="1660" cy="160" r="17" fill="#F7C6C7" stroke="#E45756" stroke-width="2"/><circle cx="1605" cy="210" r="17" fill="#F7C6C7" stroke="#E45756" stroke-width="2"/><circle cx="1660" cy="210" r="17" fill="#F7C6C7" stroke="#E45756" stroke-width="2"/><path d="M 1505 215 L 1575 270 L 1505 325 L 1435 270 Z" fill="#ffffff" stroke="#1f2933" stroke-width="2"/><text x="1505" y="258" font-size="20" font-weight="600" text-anchor="middle" fill="#1f2933">distance</text><text x="1505" y="284" font-size="20" font-weight="600" text-anchor="middle" fill="#1f2933">calculation</text><line x1="1440" y1="205" x2="1470" y2="238" stroke="#1f2933" stroke-width="2" marker-end="url(#arrow)"/><line x1="1625" y1="205" x2="1540" y2="238" stroke="#1f2933" stroke-width="2" marker-end="url(#arrow)"/><circle cx="1400" cy="430" r="58" fill="#FFF4CC" stroke="#F58518" stroke-width="2"/><line x1="1400" y1="430" x2="1458" y2="430" stroke="#F58518" stroke-width="1.2" /><line x1="1400" y1="430" x2="1450.2294734194975" y2="459" stroke="#F58518" stroke-width="1.2" /><line x1="1400" y1="430" x2="1429" y2="480.2294734194974" stroke="#F58518" stroke-width="1.2" /><line x1="1400" y1="430" x2="1400" y2="488" stroke="#F58518" stroke-width="1.2" /><line x1="1400" y1="430" x2="1371" y2="480.2294734194974" stroke="#F58518" stroke-width="1.2" /><line x1="1400" y1="430" x2="1349.7705265805025" y2="459" stroke="#F58518" stroke-width="1.2" /><line x1="1400" y1="430" x2="1342" y2="430" stroke="#F58518" stroke-width="1.2" /><line x1="1400" y1="430" x2="1349.7705265805025" y2="401" stroke="#F58518" stroke-width="1.2" /><line x1="1400" y1="430" x2="1371" y2="379.7705265805026" stroke="#F58518" stroke-width="1.2" /><line x1="1400" y1="430" x2="1400" y2="372" stroke="#F58518" stroke-width="1.2" /><line x1="1400" y1="430" x2="1429" y2="379.7705265805026" stroke="#F58518" stroke-width="1.2" /><line x1="1400" y1="430" x2="1450.2294734194975" y2="401" stroke="#F58518" stroke-width="1.2" /><circle cx="1400" cy="430" r="8" fill="#fff" stroke="#F58518" stroke-width="2"/><text x="1510" y="505" font-size="19" font-weight="400" text-anchor="start" fill="#1f2933">contact frequency</text><rect x="1378" y="490" width="44" height="44" rx="0" fill="#E5F3DA" stroke="#54A24B" stroke-width="2"/><line x1="1400" y1="488" x2="1400" y2="520" stroke="#1f2933" stroke-width="2" marker-end="url(#arrow)"/><rect x="1685" y="505" width="44" height="44" rx="0" fill="#E6D7EF" stroke="#8E6CBA" stroke-width="2"/><text x="1735" y="522" font-size="19" font-weight="400" text-anchor="start" fill="#1f2933">centrality score</text><line x1="1545" y1="520" x2="1685" y2="520" stroke="#1f2933" stroke-width="2" marker-end="url(#arrow)"/><line x1="1111" y1="549" x2="1111" y2="705" stroke="#1f2933" stroke-width="2" /><line x1="1111" y1="705" x2="1635" y2="705" stroke="#1f2933" stroke-width="2" /><rect x="1315" y="595" width="205" height="62" rx="8" fill="#FAD4A6" stroke="#F58518" stroke-width="2.5"/><text x="1417" y="626" font-size="21" font-weight="600" text-anchor="middle" fill="#1f2933">feature-fusion MLP</text><line x1="1400" y1="520" x2="1400" y2="595" stroke="#1f2933" stroke-width="2" marker-end="url(#arrow)"/><line x1="1505" y1="520" x2="1315" y2="626" stroke="#1f2933" stroke-width="2" marker-end="url(#arrow)"/><rect x="1660" y="595" width="165" height="62" rx="8" fill="#D7EC8C" stroke="#7A9A35" stroke-width="2.5"/><text x="1742" y="626" font-size="21" font-weight="600" text-anchor="middle" fill="#1f2933">fusion score</text><line x1="1520" y1="626" x2="1660" y2="626" stroke="#1f2933" stroke-width="2" marker-end="url(#arrow)"/><rect x="1720" y="682" width="150" height="62" rx="8" fill="#D8E8F8" stroke="#4C78A8" stroke-width="2.5"/><text x="1795" y="712" font-size="19" font-weight="600" text-anchor="middle" fill="#1f2933">importance score</text><text x="1665" y="690" font-size="18" font-weight="400" text-anchor="start" fill="#1f2933">gate fusion</text><line x1="1825" y1="626" x2="1795" y2="682" stroke="#1f2933" stroke-width="2" marker-end="url(#arrow)"/><line x1="1795" y1="682" x2="1795" y2="657" stroke="#1f2933" stroke-width="2" marker-end="url(#arrow)"/><rect x="1602" y="330" width="240" height="42" rx="0" fill="#D5E9FB" stroke="#4C78A8" stroke-width="1.8"/><rect x="1602" y="378" width="350" height="42" rx="0" fill="#C5DCF4" stroke="#4C78A8" stroke-width="1.8"/><rect x="1602" y="426" width="300" height="42" rx="0" fill="#B7D3EF" stroke="#4C78A8" stroke-width="1.8"/><rect x="1602" y="474" width="250" height="42" rx="0" fill="#A8C9EA" stroke="#4C78A8" stroke-width="1.8"/><line x1="1775" y1="516" x2="1775" y2="580" stroke="#1f2933" stroke-width="2" marker-end="url(#arrow)"/><text x="1855" y="455" font-size="19" font-weight="400" text-anchor="start" fill="#1f2933">softmax</text><rect x="1595" y="80" width="42" height="42" rx="0" fill="#BFD7F2" stroke="#ffffff" stroke-width="1"/><rect x="1637" y="80" width="42" height="42" rx="0" fill="#9CC4EA" stroke="#ffffff" stroke-width="1"/><rect x="1679" y="80" width="42" height="42" rx="0" fill="#78AEE0" stroke="#ffffff" stroke-width="1"/><rect x="1721" y="80" width="42" height="42" rx="0" fill="#5B8CC8" stroke="#ffffff" stroke-width="1"/><rect x="1595" y="122" width="42" height="42" rx="0" fill="#DCEAF8" stroke="#ffffff" stroke-width="1"/><rect x="1637" y="122" width="42" height="42" rx="0" fill="#BFD7F2" stroke="#ffffff" stroke-width="1"/><rect x="1679" y="122" width="42" height="42" rx="0" fill="#9CC4EA" stroke="#ffffff" stroke-width="1"/><rect x="1721" y="122" width="42" height="42" rx="0" fill="#78AEE0" stroke="#ffffff" stroke-width="1"/><rect x="1595" y="164" width="42" height="42" rx="0" fill="#5B8CC8" stroke="#ffffff" stroke-width="1"/><rect x="1637" y="164" width="42" height="42" rx="0" fill="#DCEAF8" stroke="#ffffff" stroke-width="1"/><rect x="1679" y="164" width="42" height="42" rx="0" fill="#BFD7F2" stroke="#ffffff" stroke-width="1"/><rect x="1721" y="164" width="42" height="42" rx="0" fill="#9CC4EA" stroke="#ffffff" stroke-width="1"/><rect x="1595" y="206" width="42" height="42" rx="0" fill="#78AEE0" stroke="#ffffff" stroke-width="1"/><rect x="1637" y="206" width="42" height="42" rx="0" fill="#5B8CC8" stroke="#ffffff" stroke-width="1"/><rect x="1679" y="206" width="42" height="42" rx="0" fill="#DCEAF8" stroke="#ffffff" stroke-width="1"/><rect x="1721" y="206" width="42" height="42" rx="0" fill="#BFD7F2" stroke="#ffffff" stroke-width="1"/><rect x="1595" y="80" width="168" height="168" rx="0" fill="none" stroke="#1f2933" stroke-width="1.5"/><rect x="1595" y="210" width="42" height="42" rx="0" fill="#DCEAF8" stroke="#ffffff" stroke-width="1"/><rect x="1637" y="210" width="42" height="42" rx="0" fill="#BFD7F2" stroke="#ffffff" stroke-width="1"/><rect x="1679" y="210" width="42" height="42" rx="0" fill="#78AEE0" stroke="#ffffff" stroke-width="1"/><rect x="1721" y="210" width="42" height="42" rx="0" fill="#5B8CC8" stroke="#ffffff" stroke-width="1"/><rect x="1595" y="252" width="42" height="42" rx="0" fill="#9CC4EA" stroke="#ffffff" stroke-width="1"/><rect x="1637" y="252" width="42" height="42" rx="0" fill="#DCEAF8" stroke="#ffffff" stroke-width="1"/><rect x="1679" y="252" width="42" height="42" rx="0" fill="#BFD7F2" stroke="#ffffff" stroke-width="1"/><rect x="1721" y="252" width="42" height="42" rx="0" fill="#78AEE0" stroke="#ffffff" stroke-width="1"/><rect x="1595" y="294" width="42" height="42" rx="0" fill="#5B8CC8" stroke="#ffffff" stroke-width="1"/><rect x="1637" y="294" width="42" height="42" rx="0" fill="#9CC4EA" stroke="#ffffff" stroke-width="1"/><rect x="1679" y="294" width="42" height="42" rx="0" fill="#DCEAF8" stroke="#ffffff" stroke-width="1"/><rect x="1721" y="294" width="42" height="42" rx="0" fill="#BFD7F2" stroke="#ffffff" stroke-width="1"/><rect x="1595" y="336" width="42" height="42" rx="0" fill="#78AEE0" stroke="#ffffff" stroke-width="1"/><rect x="1637" y="336" width="42" height="42" rx="0" fill="#5B8CC8" stroke="#ffffff" stroke-width="1"/><rect x="1679" y="336" width="42" height="42" rx="0" fill="#9CC4EA" stroke="#ffffff" stroke-width="1"/><rect x="1721" y="336" width="42" height="42" rx="0" fill="#DCEAF8" stroke="#ffffff" stroke-width="1"/><rect x="1595" y="210" width="168" height="168" rx="0" fill="none" stroke="#1f2933" stroke-width="1.5"/><rect x="1685" y="260" width="160" height="44" rx="6" fill="#F7F7F7" stroke="#1f2933" stroke-width="2"/><text x="1765" y="282" font-size="20" font-weight="600" text-anchor="middle" fill="#1f2933">Top-K selection</text><line x1="1765" y1="252" x2="1765" y2="210" stroke="#1f2933" stroke-width="2" marker-end="url(#arrow)"/><line x1="1765" y1="330" x2="1765" y2="304" stroke="#1f2933" stroke-width="2" marker-end="url(#arrow)"/></svg>
